<mxfile host="Electron" agent="Mozilla/5.0 (Windows NT 10.0; Win64; x64) AppleWebKit/537.36 (KHTML, like Gecko) draw.io/27.0.9 Chrome/134.0.6998.205 Electron/35.4.0 Safari/537.36" version="27.0.9">
  <diagram name="Seite-1" id="_iiKg1T24XymRDcHxRZw">
    <mxGraphModel dx="700" dy="478" grid="1" gridSize="10" guides="1" tooltips="1" connect="1" arrows="1" fold="1" page="1" pageScale="1" pageWidth="1169" pageHeight="1654" math="0" shadow="0">
      <root>
        <mxCell id="0" />
        <mxCell id="1" parent="0" />
        <mxCell id="u3tWTypJS5Ddjnxk5YKl-1" value="&lt;font style=&quot;font-size: 14px;&quot;&gt;User&lt;/font&gt;&lt;div&gt;&lt;font style=&quot;font-size: 14px;&quot;&gt;via Web interface&lt;/font&gt;&lt;/div&gt;" style="shape=umlActor;verticalLabelPosition=bottom;verticalAlign=top;html=1;outlineConnect=0;" vertex="1" parent="1">
          <mxGeometry x="150" y="380" width="30" height="60" as="geometry" />
        </mxCell>
        <mxCell id="u3tWTypJS5Ddjnxk5YKl-2" value="&lt;b&gt;&lt;font style=&quot;font-size: 14px;&quot;&gt;Configure Strategies&lt;/font&gt;&lt;/b&gt;&lt;div&gt;&lt;br&gt;&lt;/div&gt;&lt;div&gt;(Trading parameters)&lt;/div&gt;&lt;div&gt;&lt;i&gt;limits, risk management&lt;/i&gt;&lt;/div&gt;" style="ellipse;whiteSpace=wrap;html=1;" vertex="1" parent="1">
          <mxGeometry x="310" y="140" width="250" height="100" as="geometry" />
        </mxCell>
        <mxCell id="u3tWTypJS5Ddjnxk5YKl-3" value="" style="endArrow=classic;html=1;rounded=0;entryX=0;entryY=0.5;entryDx=0;entryDy=0;" edge="1" parent="1" target="u3tWTypJS5Ddjnxk5YKl-2">
          <mxGeometry width="50" height="50" relative="1" as="geometry">
            <mxPoint x="180" y="380" as="sourcePoint" />
            <mxPoint x="290" y="190" as="targetPoint" />
          </mxGeometry>
        </mxCell>
        <mxCell id="u3tWTypJS5Ddjnxk5YKl-4" value="&lt;b&gt;&lt;font style=&quot;font-size: 14px;&quot;&gt;Start/Stop Bot&lt;/font&gt;&lt;/b&gt;" style="ellipse;whiteSpace=wrap;html=1;" vertex="1" parent="1">
          <mxGeometry x="350" y="250" width="180" height="70" as="geometry" />
        </mxCell>
        <mxCell id="u3tWTypJS5Ddjnxk5YKl-5" value="" style="endArrow=classic;html=1;rounded=0;entryX=0;entryY=0.5;entryDx=0;entryDy=0;" edge="1" parent="1" target="u3tWTypJS5Ddjnxk5YKl-4">
          <mxGeometry width="50" height="50" relative="1" as="geometry">
            <mxPoint x="190" y="380" as="sourcePoint" />
            <mxPoint x="410" y="240" as="targetPoint" />
          </mxGeometry>
        </mxCell>
        <mxCell id="u3tWTypJS5Ddjnxk5YKl-6" value="&lt;b&gt;&lt;font style=&quot;font-size: 14px;&quot;&gt;View Statistics&lt;/font&gt;&lt;/b&gt;&lt;div&gt;&lt;b&gt;&lt;br&gt;&lt;/b&gt;&lt;/div&gt;&lt;div&gt;&lt;b&gt;&lt;u&gt;dashboard &lt;/u&gt;&lt;/b&gt;with charts, performance metrics, trade history&lt;/div&gt;" style="ellipse;whiteSpace=wrap;html=1;" vertex="1" parent="1">
          <mxGeometry x="350" y="340" width="210" height="100" as="geometry" />
        </mxCell>
        <mxCell id="u3tWTypJS5Ddjnxk5YKl-7" value="" style="endArrow=classic;html=1;rounded=0;entryX=0;entryY=0;entryDx=0;entryDy=0;" edge="1" parent="1" target="u3tWTypJS5Ddjnxk5YKl-6">
          <mxGeometry width="50" height="50" relative="1" as="geometry">
            <mxPoint x="190" y="400" as="sourcePoint" />
            <mxPoint x="410" y="240" as="targetPoint" />
          </mxGeometry>
        </mxCell>
        <mxCell id="u3tWTypJS5Ddjnxk5YKl-9" value="&lt;font style=&quot;font-size: 14px;&quot;&gt;&lt;b&gt;Manage Capital&lt;/b&gt;&lt;/font&gt;&lt;div&gt;&lt;font style=&quot;font-size: 14px;&quot;&gt;&lt;b&gt;&lt;br&gt;&lt;/b&gt;&lt;/font&gt;&lt;/div&gt;&lt;div&gt;&lt;font&gt;allocate assets, deposit/withdraw funds&lt;/font&gt;&lt;/div&gt;" style="ellipse;whiteSpace=wrap;html=1;" vertex="1" parent="1">
          <mxGeometry x="340" y="470" width="210" height="80" as="geometry" />
        </mxCell>
        <mxCell id="u3tWTypJS5Ddjnxk5YKl-10" value="" style="endArrow=classic;html=1;rounded=0;entryX=0;entryY=0.5;entryDx=0;entryDy=0;" edge="1" parent="1" target="u3tWTypJS5Ddjnxk5YKl-9">
          <mxGeometry width="50" height="50" relative="1" as="geometry">
            <mxPoint x="190" y="410" as="sourcePoint" />
            <mxPoint x="390" y="330" as="targetPoint" />
          </mxGeometry>
        </mxCell>
        <mxCell id="u3tWTypJS5Ddjnxk5YKl-11" value="" style="whiteSpace=wrap;html=1;aspect=fixed;" vertex="1" parent="1">
          <mxGeometry x="650" y="150" width="380" height="380" as="geometry" />
        </mxCell>
        <mxCell id="u3tWTypJS5Ddjnxk5YKl-12" value="&lt;font style=&quot;font-size: 16px;&quot;&gt;&lt;b&gt;&lt;u&gt;System&lt;/u&gt;&lt;/b&gt;&lt;/font&gt;" style="text;html=1;align=center;verticalAlign=middle;whiteSpace=wrap;rounded=0;" vertex="1" parent="1">
          <mxGeometry x="810" y="120" width="60" height="30" as="geometry" />
        </mxCell>
        <mxCell id="u3tWTypJS5Ddjnxk5YKl-13" value="" style="endArrow=classic;startArrow=classic;html=1;rounded=0;entryX=0;entryY=0.25;entryDx=0;entryDy=0;dashed=1;" edge="1" parent="1" target="u3tWTypJS5Ddjnxk5YKl-11">
          <mxGeometry width="50" height="50" relative="1" as="geometry">
            <mxPoint x="560" y="190" as="sourcePoint" />
            <mxPoint x="610" y="140" as="targetPoint" />
          </mxGeometry>
        </mxCell>
        <mxCell id="u3tWTypJS5Ddjnxk5YKl-14" value="" style="endArrow=classic;startArrow=classic;html=1;rounded=0;entryX=0;entryY=0.5;entryDx=0;entryDy=0;dashed=1;" edge="1" parent="1" target="u3tWTypJS5Ddjnxk5YKl-11">
          <mxGeometry width="50" height="50" relative="1" as="geometry">
            <mxPoint x="530" y="280" as="sourcePoint" />
            <mxPoint x="620" y="335" as="targetPoint" />
          </mxGeometry>
        </mxCell>
        <mxCell id="u3tWTypJS5Ddjnxk5YKl-15" value="" style="endArrow=classic;startArrow=classic;html=1;rounded=0;dashed=1;entryX=0.005;entryY=0.583;entryDx=0;entryDy=0;entryPerimeter=0;" edge="1" parent="1" target="u3tWTypJS5Ddjnxk5YKl-11">
          <mxGeometry width="50" height="50" relative="1" as="geometry">
            <mxPoint x="560" y="385" as="sourcePoint" />
            <mxPoint x="650" y="370" as="targetPoint" />
          </mxGeometry>
        </mxCell>
        <mxCell id="u3tWTypJS5Ddjnxk5YKl-16" value="" style="endArrow=classic;startArrow=classic;html=1;rounded=0;entryX=0.004;entryY=0.854;entryDx=0;entryDy=0;dashed=1;entryPerimeter=0;" edge="1" parent="1" target="u3tWTypJS5Ddjnxk5YKl-11">
          <mxGeometry width="50" height="50" relative="1" as="geometry">
            <mxPoint x="550" y="510" as="sourcePoint" />
            <mxPoint x="640" y="565" as="targetPoint" />
          </mxGeometry>
        </mxCell>
        <mxCell id="u3tWTypJS5Ddjnxk5YKl-18" value="&lt;b&gt;&lt;font style=&quot;font-size: 14px;&quot;&gt;Collect and analyze market data&lt;/font&gt;&lt;/b&gt;" style="ellipse;whiteSpace=wrap;html=1;dashed=1;" vertex="1" parent="1">
          <mxGeometry x="760" y="160" width="160" height="80" as="geometry" />
        </mxCell>
        <mxCell id="u3tWTypJS5Ddjnxk5YKl-19" value="&lt;b&gt;&lt;font style=&quot;font-size: 14px;&quot;&gt;Predict market movements&lt;/font&gt;&lt;/b&gt;" style="ellipse;whiteSpace=wrap;html=1;dashed=1;" vertex="1" parent="1">
          <mxGeometry x="760" y="250" width="160" height="80" as="geometry" />
        </mxCell>
        <mxCell id="u3tWTypJS5Ddjnxk5YKl-20" value="&lt;b&gt;&lt;font style=&quot;font-size: 14px;&quot;&gt;Execute trades&lt;/font&gt;&lt;/b&gt;" style="ellipse;whiteSpace=wrap;html=1;dashed=1;" vertex="1" parent="1">
          <mxGeometry x="760" y="350" width="160" height="80" as="geometry" />
        </mxCell>
        <mxCell id="u3tWTypJS5Ddjnxk5YKl-21" value="&lt;b&gt;&lt;font style=&quot;font-size: 14px;&quot;&gt;Generate reports&lt;/font&gt;&lt;/b&gt;" style="ellipse;whiteSpace=wrap;html=1;" vertex="1" parent="1">
          <mxGeometry x="760" y="440" width="160" height="80" as="geometry" />
        </mxCell>
      </root>
    </mxGraphModel>
  </diagram>
</mxfile>
